<?xml version="1.0" encoding="UTF-8"?>
<!DOCTYPE svg PUBLIC "-//W3C//DTD SVG 1.1//EN" "http://www.w3.org/Graphics/SVG/1.1/DTD/svg11.dtd">
<!-- Creator: CorelDRAW X7 -->
<svg xmlns="http://www.w3.org/2000/svg" xml:space="preserve" width="455px" height="148px" version="1.1" shape-rendering="geometricPrecision" text-rendering="geometricPrecision" image-rendering="optimizeQuality" fill-rule="evenodd" clip-rule="evenodd"
viewBox="0 0 455 148"
 xmlns:xlink="http://www.w3.org/1999/xlink">
 <g id="Layer_x0020_1">
  <metadata id="CorelCorpID_0Corel-Layer"/>
  <g id="_560175856">
   <path fill="#2B2A29" fill-rule="nonzero" d="M44 99l9 0c5,-7 9,-13 12,-18 2,-6 4,-9 4,-11 0,-2 -2,-3 -6,-3 -2,0 -6,1 -12,1 -6,1 -11,2 -17,3 -4,1 -8,2 -11,3 -3,1 -5,2 -6,2 -1,1 -2,2 -2,2 2,0 5,0 7,0 3,0 5,0 5,1 0,0 -1,0 -4,1 -2,0 -4,1 -6,1 -2,1 -4,2 -6,2 -1,1 -2,1 -3,1 -1,0 -2,0 -2,-1 -1,0 -1,-1 -1,-2 0,-1 1,-3 2,-5 1,-3 2,-6 4,-9 2,-3 5,-5 8,-6 1,-1 4,-2 10,-3 5,-1 12,-3 19,-4 7,-1 14,-1 20,-1 4,0 6,0 9,1 2,1 3,3 3,7 0,1 0,2 -1,5 -1,2 -2,5 -4,8 -2,4 -4,7 -6,12 -3,4 -5,8 -9,13l9 0 -7 11c-1,0 -3,0 -4,0 -2,0 -4,0 -6,0 -4,7 -10,13 -15,18 -6,6 -11,10 -16,14 -4,3 -8,5 -9,5 -1,0 -2,-1 -2,-1 -1,-1 -1,-1 -1,-2 0,-1 1,-2 2,-5 2,-3 5,-6 8,-8 3,-2 6,-4 10,-4 2,-2 3,-3 5,-5 1,-1 2,-3 4,-5 3,-3 4,-5 5,-6l-17 1c-2,0 -4,0 -4,0 -1,-1 -2,-1 -2,-2 0,0 1,-1 1,-2 0,-1 1,-2 1,-2 1,-2 1,-2 2,-3 0,0 1,0 3,0l11 -3c3,-1 5,-1 6,-1z"/>
   <path id="1" fill="#2B2A29" fill-rule="nonzero" d="M72 114l0 -4c2,-2 3,-4 5,-6 -2,-1 -3,-1 -3,-2 -1,0 -1,-1 -1,-3 0,-1 1,-3 2,-5 1,-2 2,-4 4,-6 2,-2 3,-3 5,-4 0,0 1,0 1,0 1,0 2,0 2,1 0,1 -1,2 -2,4 8,-1 13,-2 15,-2 1,0 2,0 2,0 1,1 1,2 2,3 0,1 0,2 0,4 0,1 0,1 -1,2 -1,1 -2,3 -4,5 -2,2 -4,4 -5,7 -1,3 -2,5 -2,6 0,2 1,3 3,3 3,0 7,-3 13,-8l0 4c-3,4 -6,7 -8,8 -2,2 -4,4 -6,5 -2,1 -4,2 -5,2 -2,0 -3,-1 -4,-2 -1,-2 -2,-4 -2,-7 0,-2 1,-4 2,-6 0,-2 2,-4 3,-7 2,-2 4,-5 6,-7 -1,0 -2,0 -4,0 -1,1 -3,1 -4,1 -2,0 -3,1 -4,1 -2,5 -6,9 -10,13z"/>
   <path id="2" fill="#2B2A29" fill-rule="nonzero" d="M117 112l0 1c0,2 1,4 2,6 1,1 2,2 4,2 2,0 4,-1 6,-2 2,-1 4,-2 7,-3 2,-2 4,-4 7,-6l0 3c-4,6 -9,10 -13,12 -3,3 -7,5 -11,5 -4,0 -7,-2 -9,-4 -2,-3 -3,-7 -3,-12 0,-4 1,-7 3,-11 2,-3 5,-7 10,-10 3,-3 6,-5 8,-6 3,-2 6,-2 8,-2 2,0 4,0 5,1 1,1 1,2 1,4 0,2 0,5 -2,7 -2,3 -5,5 -9,8 -4,2 -8,4 -14,7zm1 -4c3,-2 6,-3 9,-5 2,-2 4,-4 5,-6 2,-2 2,-3 2,-4 0,-1 0,-2 -1,-2 -1,0 -2,1 -4,2 -1,1 -3,2 -4,3 -2,2 -3,3 -5,5 -1,2 -2,5 -2,7z"/>
   <path id="3" fill="#2B2A29" fill-rule="nonzero" d="M143 111l0 -1c10,-11 17,-18 21,-23 1,-5 3,-7 6,-7 1,0 2,0 3,1l0 1c0,0 0,1 0,2 0,1 0,2 1,4 0,2 1,4 1,5 0,1 0,3 0,5 0,2 0,5 -1,7 -1,3 -3,5 -5,7 -3,2 -6,5 -9,7 1,0 2,0 3,0 2,0 4,0 5,-1 2,-1 4,-2 6,-3 2,-2 4,-3 7,-6l0 4c-5,5 -10,9 -13,12 -4,2 -8,3 -11,3 -3,0 -7,-1 -10,-4 -2,-2 -3,-4 -4,-6 0,-1 0,-4 0,-7zm22 -9l-1 -8c-3,2 -8,8 -16,15 2,1 4,2 5,3 1,0 2,2 4,5 2,-2 4,-3 6,-5 1,-2 2,-4 2,-8 0,0 0,-1 0,-1 0,0 0,-1 0,-1z"/>
   <path id="4" fill="#2B2A29" fill-rule="nonzero" d="M225 110l0 3c-3,4 -6,7 -9,9 -2,2 -5,4 -6,5 -2,1 -4,2 -5,2 -3,0 -5,-2 -5,-6 0,-3 1,-6 3,-10 2,-4 5,-8 8,-14 -1,1 -3,3 -5,4 -1,1 -3,2 -4,4 -1,1 -2,2 -3,3 -3,3 -5,6 -7,9 -3,3 -4,5 -5,6 -1,1 -2,2 -3,2 -3,0 -4,-4 -4,-12 0,-2 0,-5 1,-8 1,-3 3,-7 6,-12 7,-10 13,-19 18,-25 5,-7 9,-12 12,-15 3,-3 5,-5 6,-5 2,0 3,0 4,1 1,0 1,1 1,1 0,1 -1,3 -2,5 -1,2 -4,6 -7,11 -4,5 -6,8 -8,10 -1,3 -3,5 -6,9 -3,4 -6,7 -8,10 -3,3 -6,7 -9,10l0 7c5,-6 10,-10 14,-14 4,-4 7,-7 10,-9 2,-2 4,-3 6,-3 1,0 2,1 3,3 1,1 1,2 1,3 0,0 0,1 0,1 -3,4 -5,7 -7,9 -2,2 -3,4 -4,6 -1,2 -1,3 -1,4 0,2 1,3 2,3 2,0 7,-2 13,-7z"/>
   <path id="5" fill="#2B2A29" fill-rule="nonzero" d="M326 109l0 4c-3,4 -7,7 -9,9 -3,2 -5,4 -8,6 -3,1 -5,3 -6,3 -2,1 -4,1 -5,1 -3,0 -5,-1 -7,-3 -2,-2 -3,-5 -3,-8 0,-4 1,-8 3,-12 1,-4 3,-8 6,-12 3,-4 7,-9 12,-14 3,-4 4,-6 4,-6 0,0 0,-1 0,-1 0,0 0,0 0,0 -1,0 -4,2 -7,5 -4,3 -9,8 -15,14 -6,7 -13,15 -20,23 0,1 -2,2 -4,5 -2,3 -3,5 -4,6 -1,0 -2,1 -2,1 -1,0 -2,-1 -3,-4 -1,-2 -1,-4 -1,-7 0,-1 0,-3 1,-5 1,-1 3,-5 7,-9 3,-5 6,-9 8,-12 2,-3 5,-7 7,-11 2,-3 4,-6 4,-8 1,-2 2,-3 2,-5 0,-1 -1,-2 -1,-2 -2,0 -5,3 -9,7 -4,4 -9,9 -15,17 -6,8 -13,17 -19,28 -2,3 -4,6 -5,7 -1,1 -2,2 -3,2 -1,0 -3,-2 -4,-5 -1,-3 -2,-5 -2,-7 0,0 1,-1 1,-2 5,-7 10,-13 13,-17 3,-5 6,-10 9,-14 3,-5 4,-8 6,-11 1,-3 1,-5 1,-7 0,-1 0,-2 -2,-2 -1,0 -3,1 -6,2 -3,2 -7,4 -12,7 -5,3 -8,5 -11,6 -3,2 -5,2 -6,2 -2,0 -2,0 -2,-2 0,-1 0,-2 1,-5 0,-3 1,-6 1,-7 1,-1 3,-3 7,-6 3,-3 5,-4 5,-4 1,0 1,0 1,0 0,1 0,1 -1,1 -1,2 -3,3 -3,3 -1,1 -2,2 -2,3 7,-4 14,-8 20,-10 5,-2 9,-3 11,-3 2,0 3,1 4,2 1,2 1,3 2,5 1,2 1,3 1,4 0,2 0,4 -1,7 -1,3 -3,6 -5,10 -1,3 -4,8 -6,13 2,-2 4,-5 6,-7 2,-2 3,-5 5,-7 2,-2 4,-4 6,-6 2,-3 5,-6 8,-9 4,-2 7,-5 9,-6 3,-2 5,-3 6,-3 2,0 3,1 4,2 1,2 1,4 1,5 0,1 0,4 -2,7 -1,3 -3,7 -6,12 -3,5 -7,12 -12,20 5,-5 9,-10 14,-15 5,-5 9,-9 11,-11 2,-2 4,-4 6,-5 2,-2 4,-4 7,-6 2,-2 3,-3 5,-4 1,-1 2,-2 3,-3 1,0 2,-1 3,-1 1,0 2,2 4,4 1,2 2,4 2,5 0,0 0,1 -1,2 -1,2 -3,4 -6,7 -6,6 -10,11 -14,17 -4,6 -7,11 -9,16 -2,5 -3,9 -3,12 0,2 0,3 1,4 1,0 2,1 3,1 1,0 2,0 3,-1 1,0 3,-1 4,-2 1,-1 3,-2 4,-2 1,-1 3,-2 5,-4 1,-1 3,-2 3,-2 1,-1 2,-1 2,-2z"/>
   <path id="6" fill="#2B2A29" fill-rule="nonzero" d="M335 112l0 1c0,2 1,4 2,6 1,1 3,2 5,2 2,0 4,-1 6,-2 2,-1 4,-2 6,-3 2,-2 4,-4 7,-6l0 3c-4,6 -8,10 -12,12 -4,3 -8,5 -12,5 -4,0 -6,-2 -8,-4 -3,-3 -4,-7 -4,-12 0,-4 1,-7 3,-11 2,-3 5,-7 10,-10 3,-3 6,-5 9,-6 3,-2 5,-2 8,-2 2,0 3,0 4,1 1,1 2,2 2,4 0,2 -1,5 -3,7 -2,3 -5,5 -9,8 -3,2 -8,4 -14,7zm1 -4c4,-2 7,-3 9,-5 3,-2 4,-4 6,-6 1,-2 1,-3 1,-4 0,-1 0,-2 -1,-2 0,0 -2,1 -3,2 -2,1 -3,2 -5,3 -2,2 -3,3 -4,5 -2,2 -3,5 -3,7z"/>
   <path id="7" fill="#2B2A29" fill-rule="nonzero" d="M368 99c6,-5 12,-10 18,-12 5,-3 10,-4 13,-4 1,0 1,0 2,1 1,1 1,1 2,2 0,1 0,2 0,2 0,1 0,2 0,2 -1,0 -2,1 -3,1 0,1 0,2 1,3 0,1 0,1 1,2 0,1 0,1 0,2 0,0 -1,2 -3,5 -2,2 -3,4 -4,6 -1,1 -1,2 -1,4 0,3 1,4 4,4 3,0 7,-2 13,-7l0 3c-10,11 -17,17 -21,17 -2,0 -3,-1 -4,-2 0,-1 -1,-2 -1,-4 0,-3 1,-8 4,-14 -6,7 -10,11 -13,14 -3,3 -5,4 -7,4 -1,0 -2,-1 -3,-2 -2,-2 -3,-4 -4,-6 -1,-2 -1,-5 -1,-7 0,-2 0,-4 0,-5 1,-1 1,-3 2,-4 1,-1 3,-3 5,-5zm29 -7c-11,5 -18,9 -22,12 -5,4 -7,7 -7,11 0,1 0,2 1,3 0,0 1,1 2,1 0,0 1,0 2,-1 4,-2 8,-6 11,-10 4,-3 8,-9 13,-16z"/>
   <path id="8" fill="#2B2A29" fill-rule="nonzero" d="M439 109l0 4c-9,11 -15,17 -20,17 -3,0 -5,-2 -7,-5 -2,-3 -2,-7 -2,-12 0,-4 1,-9 2,-14 2,-6 5,-11 8,-17 3,-6 7,-11 10,-15 3,-4 7,-7 9,-9 2,-1 3,-1 3,-1 1,0 2,0 2,1 0,1 0,2 0,4 0,5 -2,12 -6,20 -5,8 -11,16 -19,24 0,3 -1,4 -1,5 0,3 1,5 2,6 1,2 3,3 4,3 1,0 3,-1 4,-1 1,-1 2,-2 3,-3 2,-1 4,-4 8,-7zm-18 -11c2,-2 4,-4 6,-7 2,-2 4,-5 5,-8 2,-3 3,-5 4,-8 1,-2 2,-4 2,-5 0,-1 0,-1 -1,-1 0,0 -1,0 -1,0 -3,2 -6,6 -9,12 -3,6 -5,11 -6,17z"/>
   <path fill="#FFED00" stroke="#FFED00" stroke-width="2.36364" d="M138 78c49,-2 87,-23 100,-71 -53,-8 -74,6 -100,71z"/>
   <path fill="#FFED00" stroke="#FEFEFE" stroke-width="2.36364" d="M143 78c19,-27 23,-55 3,-81 -25,25 -26,41 -3,81z"/>
  </g>
 </g>
</svg>
