<?xml version="1.0" encoding="UTF-8"?>
<!DOCTYPE svg PUBLIC "-//W3C//DTD SVG 1.1//EN" "http://www.w3.org/Graphics/SVG/1.1/DTD/svg11.dtd">
<!-- Creator: CorelDRAW X7 -->
<?xml-stylesheet href="log.css" type="text/css"?>
<svg xmlns="http://www.w3.org/2000/svg" xml:space="preserve" width="210mm" height="297mm" version="1.1" style="shape-rendering:geometricPrecision; text-rendering:geometricPrecision; image-rendering:optimizeQuality; fill-rule:evenodd; clip-rule:evenodd"
viewBox="0 0 21000 29700"
 xmlns:xlink="http://www.w3.org/1999/xlink">
 <g id="Layer_x0020_1">
  <metadata id="CorelCorpID_0Corel-Layer"/>
  <g id="_269238776">
   <path class="fil0" d="M3044 7232l76 0c44,-59 77,-110 100,-154 23,-43 34,-72 34,-86 0,-19 -16,-28 -49,-28 -19,1 -53,5 -101,12 -49,6 -95,14 -141,23 -40,8 -73,16 -98,24 -24,8 -42,15 -52,20 -10,6 -16,9 -18,12 25,-2 46,-2 62,-2 27,0 41,3 41,9 0,2 -10,6 -28,10 -19,4 -37,9 -54,13 -16,5 -32,10 -47,17 -16,6 -25,9 -29,9 -7,0 -14,-3 -19,-8 -4,-6 -7,-13 -7,-22 0,-5 5,-20 14,-44 9,-24 22,-48 39,-72 16,-24 37,-42 62,-54 8,-4 37,-12 86,-23 48,-12 103,-22 164,-31 61,-10 117,-14 168,-14 30,0 55,4 73,13 19,8 28,26 28,54 0,9 -3,23 -10,42 -6,19 -17,43 -31,72 -15,30 -32,62 -53,97 -21,35 -45,72 -72,111l78 0 -67 95c-9,1 -20,2 -34,2 -13,0 -28,1 -44,2 -41,53 -86,103 -134,150 -47,47 -91,85 -130,113 -39,29 -66,43 -82,43 -6,0 -11,-2 -16,-6 -5,-4 -7,-10 -7,-17 0,-5 7,-20 22,-43 15,-24 36,-45 62,-66 26,-20 56,-32 90,-34 14,-14 26,-27 35,-38 10,-11 24,-27 42,-49 18,-21 32,-37 42,-49l-151 8c-16,1 -28,0 -34,-2 -6,-2 -9,-8 -9,-16 0,0 2,-5 5,-13 3,-9 7,-16 11,-22 5,-10 9,-16 12,-18 3,-2 13,-5 27,-8l93 -22c24,-7 42,-10 51,-10z"/>
   <path id="1" class="fil0" d="M3278 7362l0 -32c18,-22 32,-40 41,-55 -10,-4 -18,-8 -23,-13 -5,-6 -7,-14 -7,-24 0,-13 5,-28 15,-46 10,-18 22,-36 37,-52 15,-16 28,-26 40,-31 5,-2 9,-3 13,-3 7,0 11,3 11,9 0,6 -6,17 -16,35 69,-11 112,-16 130,-16 7,0 12,0 15,2 5,3 10,10 14,21 3,11 5,22 5,33 0,7 -3,14 -9,23 -6,8 -17,20 -32,36 -18,19 -32,39 -44,62 -12,22 -18,39 -18,50 0,16 9,24 29,24 20,0 55,-21 106,-62l0 33c-28,29 -51,52 -69,69 -18,16 -35,30 -50,39 -15,10 -29,15 -41,15 -14,0 -26,-6 -35,-19 -10,-13 -14,-32 -14,-56 0,-14 4,-31 11,-49 7,-18 18,-38 32,-60 14,-21 30,-43 48,-64 -9,2 -20,4 -32,6 -11,2 -23,5 -37,7 -13,2 -23,4 -30,6 -20,41 -50,79 -90,112z"/>
   <path id="2" class="fil0" d="M3663 7342l0 12c0,20 5,35 14,46 10,11 23,17 38,17 17,0 34,-4 51,-12 18,-8 35,-18 52,-30 18,-13 39,-30 64,-51l0 30c-38,45 -73,80 -106,104 -33,24 -67,37 -101,37 -29,0 -53,-12 -70,-35 -18,-23 -26,-54 -26,-95 0,-35 8,-66 24,-95 17,-28 43,-59 80,-90 26,-22 51,-38 76,-49 25,-11 47,-17 67,-17 16,0 28,4 37,11 9,7 14,18 14,32 0,21 -8,42 -24,63 -15,21 -39,42 -71,62 -33,21 -72,41 -119,60zm5 -33c30,-12 55,-26 77,-43 21,-18 37,-34 47,-50 10,-16 15,-28 15,-35 0,-8 -3,-11 -10,-11 -6,0 -16,3 -30,11 -13,8 -27,18 -40,30 -14,12 -27,27 -38,44 -11,16 -18,35 -21,54z"/>
   <path id="3" class="fil0" d="M3880 7338l0 -12c86,-91 145,-155 178,-191 7,-41 25,-62 53,-62 7,0 14,2 22,6l3 10c-1,4 -2,10 -2,17 0,6 3,18 8,35 4,17 8,32 11,43 2,12 4,25 4,40 0,22 -5,43 -15,63 -10,21 -25,40 -44,59 -19,18 -43,37 -73,56 12,2 21,3 28,3 14,0 29,-3 44,-10 16,-7 32,-16 49,-27 17,-12 36,-27 58,-45l0 33c-43,42 -81,73 -115,95 -34,21 -63,32 -87,32 -31,0 -60,-13 -87,-40 -16,-16 -25,-31 -29,-46 -4,-14 -6,-34 -6,-59zm187 -77l-9 -73c-21,23 -65,68 -133,135 20,4 34,10 41,17 7,8 18,22 31,43 23,-10 40,-22 52,-38 12,-17 19,-39 19,-67 0,-3 0,-6 -1,-9 0,-3 0,-5 0,-8z"/>
   <path id="4" class="fil0" d="M4576 7323l0 32c-29,30 -54,54 -75,73 -22,19 -40,33 -56,43 -16,10 -29,14 -40,14 -26,0 -39,-15 -39,-46 0,-25 8,-53 24,-86 16,-32 40,-71 70,-115 -15,9 -29,18 -42,29 -14,11 -26,22 -36,34 -11,12 -19,22 -26,30 -22,25 -43,50 -63,75 -20,26 -33,43 -40,50 -7,8 -14,12 -20,12 -26,0 -39,-32 -39,-96 0,-21 3,-45 9,-70 7,-25 24,-59 51,-101 59,-87 109,-158 150,-214 42,-55 76,-97 103,-126 28,-29 46,-43 55,-42 12,1 21,4 29,7 7,4 10,8 10,13 0,8 -5,22 -17,41 -11,19 -31,49 -59,90 -30,43 -52,73 -65,90 -12,18 -31,43 -56,75 -26,32 -49,61 -69,86 -21,25 -45,52 -72,82l0 60c45,-50 84,-90 116,-122 33,-32 61,-56 83,-72 23,-16 40,-24 50,-24 10,0 20,6 28,18 9,12 13,21 13,29 0,3 -1,7 -5,12 -24,29 -43,53 -57,72 -14,18 -25,35 -33,50 -7,15 -11,28 -11,38 0,16 7,24 22,24 16,0 52,-22 107,-65z"/>
   <path id="5" class="fil0" d="M5433 7322l0 34c-31,30 -58,54 -80,72 -23,18 -45,34 -67,49 -22,14 -40,25 -55,31 -14,6 -27,9 -37,9 -25,0 -45,-9 -60,-27 -16,-19 -24,-42 -24,-72 0,-33 7,-66 20,-98 14,-33 33,-67 58,-102 25,-35 56,-74 94,-117 28,-32 42,-50 42,-54 0,-2 -1,-4 -2,-6 -2,-2 -4,-3 -6,-3 -6,0 -26,14 -58,42 -33,28 -75,70 -126,124 -52,54 -107,119 -166,194 -4,4 -14,18 -32,41 -18,23 -31,38 -38,45 -7,7 -14,11 -19,11 -9,0 -18,-10 -24,-29 -7,-19 -11,-39 -11,-60 0,-13 5,-27 13,-42 9,-15 27,-42 56,-81 28,-39 52,-71 71,-98 18,-27 39,-59 61,-97 16,-26 28,-47 35,-63 8,-16 12,-30 12,-42 0,-10 -4,-15 -10,-15 -12,0 -36,17 -71,51 -35,33 -78,84 -130,151 -52,66 -106,144 -162,231 -18,30 -31,50 -39,61 -7,10 -16,15 -25,15 -12,0 -23,-12 -33,-37 -10,-25 -15,-45 -15,-60 0,-5 2,-11 6,-17 44,-58 80,-108 108,-149 29,-41 54,-80 76,-117 22,-37 38,-68 48,-91 10,-24 15,-43 15,-57 0,-14 -7,-21 -20,-21 -10,0 -28,7 -54,20 -26,14 -58,33 -97,56 -40,24 -71,42 -95,55 -23,12 -41,18 -53,18 -11,0 -16,-6 -16,-18 0,-7 2,-23 7,-48 4,-26 9,-43 14,-54 7,-13 25,-31 54,-53 29,-22 45,-33 48,-33 3,0 4,1 4,4 0,1 -1,3 -4,6 -14,11 -24,20 -31,27 -6,7 -11,14 -12,23 61,-37 115,-65 164,-84 48,-19 81,-29 100,-29 9,0 18,6 26,19 9,12 16,27 22,43 6,17 9,28 9,32 0,17 -5,37 -13,61 -9,23 -21,50 -36,80 -15,31 -33,69 -55,116 17,-23 34,-43 50,-63 15,-19 31,-37 46,-55 16,-18 32,-36 48,-55 21,-25 46,-49 73,-71 27,-23 52,-42 76,-56 23,-15 39,-22 48,-22 11,0 22,6 31,19 9,13 14,27 14,41 0,10 -7,28 -19,56 -13,27 -32,62 -56,105 -24,43 -56,98 -96,165 37,-40 77,-82 118,-125 41,-42 72,-73 92,-93 20,-20 36,-35 50,-45 18,-14 36,-29 55,-45 18,-17 33,-30 44,-39 11,-9 20,-16 28,-21 9,-5 16,-8 23,-8 9,0 20,10 33,30 13,20 20,33 20,39 0,7 -4,15 -12,25 -8,9 -24,28 -49,54 -45,49 -84,98 -118,147 -33,50 -58,95 -76,136 -17,41 -25,73 -25,97 0,15 2,25 8,32 5,6 14,10 26,10 10,0 20,-2 30,-6 9,-4 19,-10 30,-17 11,-8 22,-15 32,-21 14,-9 28,-17 41,-27 14,-9 24,-17 32,-23 7,-5 13,-9 16,-11z"/>
   <path id="6" class="fil0" d="M5510 7342l0 12c0,20 5,35 14,46 10,11 23,17 38,17 17,0 34,-4 51,-12 18,-8 35,-18 52,-30 18,-13 39,-30 64,-51l0 30c-38,45 -73,80 -106,104 -33,24 -67,37 -101,37 -29,0 -53,-12 -70,-35 -18,-23 -26,-54 -26,-95 0,-35 8,-66 24,-95 17,-28 43,-59 80,-90 26,-22 51,-38 76,-49 25,-11 47,-17 67,-17 16,0 28,4 37,11 9,7 14,18 14,32 0,21 -8,42 -24,63 -15,21 -39,42 -71,62 -33,21 -72,41 -119,60zm5 -33c30,-12 55,-26 77,-43 21,-18 37,-34 47,-50 10,-16 15,-28 15,-35 0,-8 -3,-11 -10,-11 -6,0 -16,3 -30,11 -13,8 -27,18 -41,30 -13,12 -26,27 -37,44 -11,16 -18,35 -21,54z"/>
   <path id="7" class="fil0" d="M5787 7234c51,-46 100,-80 148,-103 48,-22 85,-33 111,-33 7,0 13,3 19,9 6,5 11,12 15,20 3,8 5,13 5,17 0,6 -3,10 -7,13 -5,3 -13,6 -25,10 3,6 6,13 9,21 4,8 7,15 9,20 2,6 3,10 3,14 0,8 -8,23 -25,45 -16,22 -27,38 -34,48 -6,11 -9,23 -9,38 0,25 11,37 34,37 23,0 60,-22 109,-65l0 30c-84,94 -144,141 -181,141 -13,0 -22,-5 -28,-13 -5,-9 -8,-21 -8,-38 0,-26 10,-64 29,-114 -49,54 -85,92 -109,115 -24,23 -43,34 -59,34 -7,0 -16,-6 -27,-19 -11,-13 -21,-29 -29,-49 -9,-20 -13,-41 -13,-63 0,-16 1,-29 4,-39 3,-11 9,-21 18,-32 9,-12 22,-26 41,-44zm240 -55c-87,40 -148,73 -185,101 -37,28 -56,56 -56,86 0,10 2,19 6,26 4,7 9,10 15,10 4,0 10,-2 19,-7 35,-20 68,-47 97,-81 29,-33 64,-78 104,-135z"/>
   <path id="8" class="fil0" d="M6384 7318l0 37c-70,92 -126,138 -170,138 -24,0 -42,-12 -56,-38 -13,-26 -20,-60 -20,-102 0,-34 8,-75 24,-121 16,-47 37,-95 64,-143 27,-48 55,-90 84,-126 28,-36 55,-61 80,-75 10,-6 18,-9 23,-9 7,0 12,3 14,9 3,6 4,17 4,32 0,46 -19,103 -57,171 -37,67 -90,136 -157,206 -4,18 -5,31 -5,40 0,22 4,39 13,52 10,14 22,20 39,20 8,0 17,-3 27,-9 10,-7 20,-15 30,-25 11,-9 32,-28 63,-57zm-150 -90c18,-17 34,-36 50,-58 17,-22 32,-45 46,-70 15,-24 26,-46 34,-66 8,-20 13,-34 13,-45 0,-7 -3,-11 -8,-11 -3,0 -6,2 -12,5 -20,17 -43,50 -69,98 -25,49 -43,98 -54,147z"/>
   <path class="fil1 str0" d="M3842 7058c416,-20 730,-194 841,-602 -449,-66 -622,53 -841,602z"/>
   <path class="fil1 str1" d="M3883 7058c159,-227 196,-463 27,-687 -218,209 -226,348 -27,687z"/>
  </g>
 </g>
</svg>
