<?xml version="1.0" encoding="UTF-8"?>
<!DOCTYPE svg PUBLIC "-//W3C//DTD SVG 1.1//EN" "http://www.w3.org/Graphics/SVG/1.1/DTD/svg11.dtd">
<!-- Creator: CorelDRAW X7 -->
<?xml-stylesheet href="logo1.css" type="text/css"?>
<svg xmlns="http://www.w3.org/2000/svg" xml:space="preserve" width="2480px" height="3507px" version="1.1" style="shape-rendering:geometricPrecision; text-rendering:geometricPrecision; image-rendering:optimizeQuality; fill-rule:evenodd; clip-rule:evenodd"
viewBox="0 0 2480 3507"
 xmlns:xlink="http://www.w3.org/1999/xlink">
 <g id="Layer_x0020_1">
  <metadata id="CorelCorpID_0Corel-Layer"/>
  <g id="_496530816">
   <path class="fil0" d="M360 854l8 0c6,-7 10,-13 12,-18 3,-5 4,-9 4,-10 0,-2 -2,-4 -6,-4 -2,1 -6,1 -11,2 -6,1 -12,1 -17,3 -5,0 -9,1 -12,2 -3,1 -5,2 -6,3 -1,0 -2,1 -2,1 3,0 5,0 7,0 4,0 5,0 5,1 0,0 -1,1 -3,1 -2,1 -4,1 -6,2 -2,0 -4,1 -6,2 -2,0 -3,1 -3,1 -1,0 -2,-1 -3,-1 0,-1 0,-2 0,-3 0,0 0,-2 1,-5 1,-3 3,-6 5,-8 2,-3 4,-5 7,-7 1,0 4,-1 10,-3 6,-1 12,-2 20,-3 7,-1 13,-2 19,-2 4,0 7,1 9,2 2,1 3,3 3,6 0,1 0,3 -1,5 -1,2 -2,5 -3,9 -2,3 -4,7 -7,11 -2,4 -5,8 -8,13l9 0 -8 11c-1,0 -2,0 -4,1 -2,0 -3,0 -5,0 -5,6 -10,12 -16,17 -6,6 -11,11 -15,14 -5,3 -8,5 -10,5 -1,0 -1,0 -2,-1 0,0 -1,-1 -1,-2 0,0 1,-2 3,-5 2,-3 4,-5 7,-8 3,-2 7,-3 11,-4 1,-1 3,-3 4,-4 1,-2 3,-3 5,-6 2,-2 4,-4 5,-6l-18 1c-2,0 -3,0 -4,0 -1,0 -1,-1 -1,-2 0,0 0,-1 1,-2 0,-1 0,-1 1,-2 0,-1 1,-2 1,-2 1,0 2,-1 4,-1l10 -3c3,-1 5,-1 7,-1z"/>
   <path id="1" class="fil0" d="M387 869l0 -3c2,-3 4,-5 5,-7 -1,0 -2,-1 -3,-1 0,-1 -1,-2 -1,-3 0,-2 1,-4 2,-6 1,-2 3,-4 5,-6 1,-2 3,-3 4,-3 1,-1 1,-1 2,-1 1,0 1,1 1,1 0,1 -1,2 -2,4 8,-1 13,-2 16,-2 0,0 1,1 1,1 1,0 2,1 2,2 0,1 1,3 1,4 0,1 -1,2 -1,3 -1,1 -2,2 -4,4 -2,2 -4,5 -5,7 -2,3 -3,5 -3,6 0,2 2,3 4,3 2,0 6,-2 12,-7l0 4c-3,3 -6,6 -8,8 -2,2 -4,3 -6,5 -1,1 -3,1 -5,1 -1,0 -3,-1 -4,-2 -1,-2 -1,-4 -1,-7 0,-1 0,-3 1,-5 1,-3 2,-5 4,-7 1,-3 3,-6 5,-8 -1,0 -2,0 -3,1 -2,0 -3,0 -5,0 -1,1 -2,1 -3,1 -3,5 -6,9 -11,13z"/>
   <path id="2" class="fil0" d="M433 867l0 1c0,3 0,5 1,6 1,1 3,2 5,2 2,0 4,-1 6,-1 2,-1 4,-3 6,-4 2,-2 4,-4 7,-6l0 3c-4,6 -8,10 -12,13 -4,3 -8,4 -12,4 -3,0 -6,-1 -8,-4 -2,-3 -3,-6 -3,-11 0,-4 1,-8 3,-11 1,-4 5,-7 9,-11 3,-3 6,-5 9,-6 3,-1 6,-2 8,-2 2,0 3,1 4,1 1,1 2,3 2,4 0,3 -1,5 -3,8 -2,2 -5,5 -8,7 -4,2 -9,5 -14,7zm0 -4c4,-1 7,-3 9,-5 3,-2 5,-4 6,-6 1,-2 2,-3 2,-4 0,-1 -1,-1 -2,-1 0,0 -1,0 -3,1 -2,1 -3,2 -5,4 -2,1 -3,3 -4,5 -2,2 -2,4 -3,6z"/>
   <path id="3" class="fil0" d="M458 867l0 -2c10,-11 17,-18 21,-22 1,-5 3,-8 6,-8 1,0 2,1 3,1l0 1c0,1 0,1 0,2 0,1 1,2 1,4 1,2 1,4 1,5 1,2 1,3 1,5 0,3 -1,5 -2,8 -1,2 -3,4 -5,6 -2,3 -5,5 -9,7 2,0 3,1 4,1 1,0 3,-1 5,-2 2,0 4,-2 6,-3 2,-1 4,-3 6,-5l0 4c-5,5 -9,8 -13,11 -4,2 -7,4 -10,4 -4,0 -8,-2 -11,-5 -2,-2 -3,-4 -3,-5 -1,-2 -1,-5 -1,-7zm22 -9l-1 -9c-2,3 -7,8 -15,16 2,0 3,1 4,2 1,1 2,2 4,5 3,-1 5,-3 6,-5 2,-2 2,-4 2,-7 0,-1 0,-1 0,-2 0,0 0,0 0,0z"/>
   <path id="4" class="fil0" d="M540 865l0 4c-3,3 -6,6 -9,8 -2,2 -4,4 -6,5 -2,1 -4,2 -5,2 -3,0 -4,-2 -4,-5 0,-3 1,-7 2,-11 2,-3 5,-8 9,-13 -2,1 -4,2 -5,3 -2,1 -3,3 -5,4 -1,2 -2,3 -3,4 -2,3 -5,6 -7,9 -2,3 -4,5 -5,6 -1,0 -1,1 -2,1 -3,0 -5,-4 -5,-11 0,-3 1,-6 1,-9 1,-3 3,-7 6,-12 7,-10 13,-18 18,-25 5,-6 9,-11 12,-15 4,-3 6,-5 7,-5 1,0 2,1 3,1 1,1 1,1 1,2 0,1 0,2 -2,4 -1,3 -3,6 -7,11 -3,5 -6,9 -7,11 -2,2 -4,5 -7,9 -3,3 -6,7 -8,10 -3,3 -5,6 -9,9l0 8c6,-6 10,-11 14,-15 4,-4 7,-6 10,-8 3,-2 5,-3 6,-3 1,0 2,1 3,2 1,1 2,2 2,3 0,1 0,1 -1,2 -3,3 -5,6 -7,8 -1,2 -3,4 -4,6 0,2 -1,3 -1,5 0,2 1,2 3,2 2,0 6,-2 12,-7z"/>
   <path id="5" class="fil0" d="M642 865l0 4c-4,3 -7,6 -10,8 -3,2 -5,4 -8,6 -2,2 -4,3 -6,4 -2,0 -3,1 -5,1 -3,0 -5,-1 -7,-4 -2,-2 -3,-4 -3,-8 0,-4 1,-8 3,-12 1,-3 4,-7 7,-12 3,-4 6,-8 11,-13 3,-4 5,-6 5,-7 0,0 0,0 -1,-1 0,0 0,0 0,0 -1,0 -3,2 -7,5 -4,3 -9,8 -15,15 -6,6 -13,14 -20,23 0,0 -1,2 -3,5 -2,2 -4,4 -5,5 -1,1 -1,1 -2,1 -1,0 -2,-1 -3,-3 -1,-3 -1,-5 -1,-7 0,-2 0,-4 1,-5 1,-2 4,-5 7,-10 3,-4 6,-8 8,-11 3,-4 5,-7 8,-12 1,-3 3,-6 4,-7 1,-2 1,-4 1,-5 0,-2 0,-2 -1,-2 -2,0 -4,2 -8,6 -5,4 -10,10 -16,18 -6,8 -12,17 -19,27 -2,4 -4,6 -5,7 0,1 -1,2 -3,2 -1,0 -2,-1 -3,-4 -2,-3 -2,-6 -2,-7 0,-1 0,-2 1,-2 5,-7 9,-13 12,-18 4,-5 7,-10 9,-14 3,-4 5,-8 6,-11 1,-2 2,-5 2,-6 0,-2 -1,-3 -3,-3 -1,0 -3,1 -6,3 -3,1 -7,3 -12,6 -4,3 -8,5 -11,7 -2,1 -5,2 -6,2 -1,0 -2,-1 -2,-2 0,-1 0,-3 1,-6 0,-3 1,-5 2,-6 0,-2 3,-4 6,-7 3,-2 5,-4 6,-4 0,0 0,1 0,1 0,0 0,0 0,1 -2,1 -3,2 -4,3 -1,1 -1,2 -1,2 7,-4 13,-7 19,-9 6,-3 10,-4 12,-4 1,0 2,1 3,2 1,2 2,4 2,6 1,2 1,3 1,3 0,2 0,5 -1,7 -1,3 -3,6 -4,10 -2,4 -4,8 -7,14 2,-3 4,-6 6,-8 2,-2 4,-4 6,-6 1,-2 3,-5 5,-7 3,-3 6,-6 9,-8 3,-3 6,-5 9,-7 3,-2 4,-2 5,-2 2,0 3,0 4,2 1,1 2,3 2,5 0,1 -1,3 -2,6 -2,3 -4,8 -7,13 -3,5 -7,11 -11,19 4,-5 9,-9 14,-15 4,-5 8,-8 10,-11 3,-2 5,-4 6,-5 2,-2 5,-3 7,-5 2,-2 4,-4 5,-5 1,-1 2,-2 3,-2 1,-1 2,-1 3,-1 1,0 2,1 4,3 1,3 2,4 2,5 0,1 0,2 -1,3 -1,1 -3,3 -6,6 -5,6 -10,12 -14,18 -4,6 -7,11 -9,16 -2,4 -3,8 -3,11 0,2 1,3 1,4 1,1 2,1 3,1 1,0 3,0 4,-1 1,0 2,-1 3,-2 2,-1 3,-1 4,-2 2,-1 3,-2 5,-3 2,-1 3,-2 4,-3 1,-1 1,-1 2,-1z"/>
   <path id="6" class="fil0" d="M651 867l0 1c0,3 0,5 1,6 2,1 3,2 5,2 2,0 4,-1 6,-1 2,-1 4,-3 6,-4 2,-2 5,-4 8,-6l0 3c-5,6 -9,10 -13,13 -4,3 -8,4 -12,4 -3,0 -6,-1 -8,-4 -2,-3 -3,-6 -3,-11 0,-4 1,-8 3,-11 2,-4 5,-7 9,-11 3,-3 6,-5 9,-6 3,-1 6,-2 8,-2 2,0 3,1 4,1 1,1 2,3 2,4 0,3 -1,5 -3,8 -2,2 -4,5 -8,7 -4,2 -9,5 -14,7zm0 -4c4,-1 7,-3 9,-5 3,-2 5,-4 6,-6 1,-2 2,-3 2,-4 0,-1 -1,-1 -1,-1 -1,0 -2,0 -4,1 -2,1 -3,2 -5,4 -1,1 -3,3 -4,5 -1,2 -2,4 -3,6z"/>
   <path id="7" class="fil0" d="M683 854c6,-5 12,-9 18,-12 6,-2 10,-4 13,-4 1,0 2,1 2,1 1,1 2,2 2,3 0,1 1,1 1,2 0,0 -1,1 -1,1 -1,1 -2,1 -3,1 0,1 1,2 1,3 0,1 1,2 1,2 0,1 0,1 0,2 0,1 -1,3 -3,5 -1,3 -3,5 -4,6 0,1 -1,3 -1,4 0,3 2,5 4,5 3,0 7,-3 13,-8l0 4c-10,11 -17,16 -21,16 -2,0 -3,0 -3,-1 -1,-1 -1,-3 -1,-5 0,-3 1,-7 3,-13 -6,6 -10,11 -13,13 -3,3 -5,4 -7,4 -1,0 -2,0 -3,-2 -1,-1 -3,-3 -4,-6 -1,-2 -1,-5 -1,-7 0,-2 0,-4 0,-5 1,-1 2,-2 3,-4 1,-1 2,-3 4,-5zm29 -6c-10,4 -18,8 -22,12 -4,3 -7,6 -7,10 0,1 1,2 1,3 0,1 1,1 2,1 0,0 1,0 2,-1 4,-2 8,-5 11,-9 4,-4 8,-9 13,-16z"/>
   <path id="8" class="fil0" d="M754 864l0 5c-8,10 -15,16 -20,16 -3,0 -5,-2 -7,-5 -1,-3 -2,-7 -2,-12 0,-4 1,-8 3,-14 2,-6 4,-11 7,-17 3,-6 7,-10 10,-15 4,-4 7,-7 10,-9 1,0 2,-1 2,-1 1,0 2,1 2,1 0,1 0,2 0,4 0,6 -2,12 -6,20 -5,8 -11,16 -19,25 0,2 0,3 0,5 0,2 0,4 1,6 1,1 3,2 5,2 1,0 2,0 3,-1 1,-1 2,-2 4,-3 1,-1 3,-3 7,-7zm-18 -10c2,-2 4,-5 6,-7 2,-3 4,-6 6,-8 1,-3 3,-6 4,-8 1,-3 1,-4 1,-6 0,0 0,-1 -1,-1 0,0 -1,0 -1,1 -3,2 -5,6 -8,11 -3,6 -6,12 -7,18z"/>
   <path class="fil1 str0" d="M454 834c49,-3 86,-23 99,-72 -53,-7 -73,7 -99,72z"/>
   <path class="fil1 str1" d="M459 834c18,-27 23,-55 3,-82 -26,25 -27,41 -3,82z"/>
  </g>
 </g>
</svg>
